<?xml version="1.0" encoding="utf-8"?>
<svg xmlns="http://www.w3.org/2000/svg" id="Outline" viewBox="0 0 64 64" width="512" height="512">
  <path d="M53,13H31a1,1,0,0,0-1,1V32a1,1,0,0,0,1,1H53a1,1,0,0,0,1-1V14A1,1,0,0,0,53,13ZM41,31H32V19h9Zm0-14H32V15h9ZM52,31H43V19h9Zm0-14H43V15h9Z" style="fill: rgb(255, 255, 255);"/>
  <path d="M37,35H31a1,1,0,0,0-1,1v4a1,1,0,0,0,1,1h6a1,1,0,0,0,1-1V36A1,1,0,0,0,37,35Zm-1,4H32V37h4Z" style="fill: rgb(255, 255, 255);"/>
  <path d="M53,35H47a1,1,0,0,0-1,1v4a1,1,0,0,0,1,1h6a1,1,0,0,0,1-1V36A1,1,0,0,0,53,35Zm-1,4H48V37h4Z" style="fill: rgb(255, 255, 255);"/>
  <path d="M60,19H58V14a5.006,5.006,0,0,0-5-5H31a5.009,5.009,0,0,0-4.9,4H5a3,3,0,0,0-3,3v2a1,1,0,0,0,1,1h.051A4.463,4.463,0,0,0,11,21.294a4.443,4.443,0,0,0,7,0A4.463,4.463,0,0,0,25.949,19H26V31H16v2h2.586L26,40.414V43a1,1,0,0,0-1,1v4a1,1,0,0,0,1,1h2v4a2,2,0,0,0,2,2h4a2,2,0,0,0,2-2V49H48v4a2,2,0,0,0,2,2h4a2,2,0,0,0,2-2V49h2a1,1,0,0,0,1-1V44a1,1,0,0,0-1-1V29h2a2,2,0,0,0,2-2V21A2,2,0,0,0,60,19ZM28,14a3,3,0,0,1,3-3H53a3,3,0,0,1,3,3V43H28ZM7.5,21a2.5,2.5,0,0,1-2.449-2h4.9A2.5,2.5,0,0,1,7.5,21Zm7,0a2.5,2.5,0,0,1-2.449-2h4.9A2.5,2.5,0,0,1,14.5,21Zm7,0a2.5,2.5,0,0,1-2.449-2h4.9A2.5,2.5,0,0,1,21.5,21ZM4,17V16a1,1,0,0,1,1-1H26v2ZM21.414,33H26v4.586ZM34,53H30V49h4Zm3-6H27V45H37Zm8,0H39V45h6Zm9,6H50V49h4Zm3-6H47V45H57Zm1-20V21h2v6Z" style="fill: rgb(255, 255, 255);"/>
  <path d="M17,37.757H8a1,1,0,0,0-.97.758l-4,16L4.97,55l.811-3.243h6.938l-.689,2.758L13.97,55,17,42.881,20.03,55l1.94-.485-4-16A1,1,0,0,0,17,37.757Zm-3.781,12H6.281l2.5-10h6.938Z" style="fill: rgb(255, 255, 255);"/>
  <path d="M53,13H31a1,1,0,0,0-1,1V32a1,1,0,0,0,1,1H53a1,1,0,0,0,1-1V14A1,1,0,0,0,53,13ZM41,31H32V19h9Zm0-14H32V15h9ZM52,31H43V19h9Zm0-14H43V15h9Z" style="fill: rgb(255, 255, 255);"/>
  <path d="M37,35H31a1,1,0,0,0-1,1v4a1,1,0,0,0,1,1h6a1,1,0,0,0,1-1V36A1,1,0,0,0,37,35Zm-1,4H32V37h4Z" style="fill: rgb(255, 255, 255);"/>
  <path d="M53,35H47a1,1,0,0,0-1,1v4a1,1,0,0,0,1,1h6a1,1,0,0,0,1-1V36A1,1,0,0,0,53,35Zm-1,4H48V37h4Z" style="fill: rgb(255, 255, 255);"/>
  <path d="M60,19H58V14a5.006,5.006,0,0,0-5-5H31a5.009,5.009,0,0,0-4.9,4H5a3,3,0,0,0-3,3v2a1,1,0,0,0,1,1h.051A4.463,4.463,0,0,0,11,21.294a4.443,4.443,0,0,0,7,0A4.463,4.463,0,0,0,25.949,19H26V31H16v2h2.586L26,40.414V43a1,1,0,0,0-1,1v4a1,1,0,0,0,1,1h2v4a2,2,0,0,0,2,2h4a2,2,0,0,0,2-2V49H48v4a2,2,0,0,0,2,2h4a2,2,0,0,0,2-2V49h2a1,1,0,0,0,1-1V44a1,1,0,0,0-1-1V29h2a2,2,0,0,0,2-2V21A2,2,0,0,0,60,19ZM28,14a3,3,0,0,1,3-3H53a3,3,0,0,1,3,3V43H28ZM7.5,21a2.5,2.5,0,0,1-2.449-2h4.9A2.5,2.5,0,0,1,7.5,21Zm7,0a2.5,2.5,0,0,1-2.449-2h4.9A2.5,2.5,0,0,1,14.5,21Zm7,0a2.5,2.5,0,0,1-2.449-2h4.9A2.5,2.5,0,0,1,21.5,21ZM4,17V16a1,1,0,0,1,1-1H26v2ZM21.414,33H26v4.586ZM34,53H30V49h4Zm3-6H27V45H37Zm8,0H39V45h6Zm9,6H50V49h4Zm3-6H47V45H57Zm1-20V21h2v6Z" style="fill: rgb(255, 255, 255);"/>
  <path d="M17,37.757H8a1,1,0,0,0-.97.758l-4,16L4.97,55l.811-3.243h6.938l-.689,2.758L13.97,55,17,42.881,20.03,55l1.94-.485-4-16A1,1,0,0,0,17,37.757Zm-3.781,12H6.281l2.5-10h6.938Z" style="fill: rgb(255, 255, 255);"/>
</svg>