<?xml version="1.0" encoding="utf-8"?>
<svg id="Glyph" height="512" viewBox="0 0 64 64" width="512" xmlns="http://www.w3.org/2000/svg">
  <g>
    <path d="m33.5 20v.641c.488-.087.987-.141 1.5-.141s1.012.053 1.5.141v-.641c0-.827-.673-1.5-1.5-1.5s-1.5.673-1.5 1.5z" style="fill: rgb(255, 255, 255);"/>
    <path d="m35 21.5c-3.967 0-7.216 3.098-7.475 7h14.949c-.258-3.902-3.507-7-7.474-7z" style="fill: rgb(255, 255, 255);"/>
    <path d="m49 32.5h6c1.76 0 3.221-1.306 3.465-3h-3.465-6-3.465c.244 1.694 1.705 3 3.465 3z" style="fill: rgb(255, 255, 255);"/>
    <path d="m49 20.5h6c1.76 0 3.221-1.306 3.465-3h-12.93c.244 1.694 1.705 3 3.465 3z" style="fill: rgb(255, 255, 255);"/>
    <path d="m27 32.5h16c.827 0 1.5-.673 1.5-1.5s-.673-1.5-1.5-1.5h-16c-.827 0-1.5.673-1.5 1.5s.673 1.5 1.5 1.5z" style="fill: rgb(255, 255, 255);"/>
    <path d="m49 24.5h6c1.76 0 3.221-1.306 3.465-3h-3.465-6-3.465c.244 1.694 1.705 3 3.465 3z" style="fill: rgb(255, 255, 255);"/>
    <path d="m49 28.5h6c1.76 0 3.221-1.306 3.465-3h-3.465-6-3.465c.244 1.694 1.705 3 3.465 3z" style="fill: rgb(255, 255, 255);"/>
    <path d="m56.096 43.33c-.683-.471-1.602-.517-2.4-.118l-3.104 1.551c-1.124.562-2.358.844-3.592.844s-2.467-.281-3.592-.844l-1.026-.513c-2.11-1.056-4.595-.984-6.643.189-2.328 1.334-5.269 1.354-7.866.057l-.491-.246c-2.111-1.056-4.594-.984-6.643.189-2.328 1.334-5.269 1.354-7.866.057l-2.568-1.284c-.798-.399-1.717-.353-2.4.118-1.075.742-2.406.824-3.56.218-.319-.167-.6-.383-.845-.63v1.581c0 .917.482 1.723 1.291 2.155.812.434 1.749.387 2.51-.121 1.025-.684 2.349-.768 3.451-.215l2.866 1.433c2.109 1.055 4.588.985 6.634-.185 2.338-1.334 5.168-1.413 7.577-.21l.789.395c2.109 1.055 4.589.985 6.634-.185 1.235-.705 2.608-1.06 3.984-1.06 1.228 0 2.457.282 3.593.85l1.026.513c1.969.984 4.32.984 6.289 0l3.104-1.551c1.104-.553 2.426-.469 3.451.215.763.508 1.699.555 2.51.121.809-.433 1.291-1.238 1.291-2.155v-1.581c-.245.247-.526.463-.845.63-1.153.606-2.486.524-3.559-.218z" style="fill: rgb(255, 255, 255);"/>
    <path d="m53.695 47.212-1.23.615c.02.054.035.111.035.173v12.5h3v-13.433c-.59-.179-1.236-.139-1.805.145z" style="fill: rgb(255, 255, 255);"/>
    <path d="m8.5 47.067v13.433h3v-12.691l-1.195-.597c-.568-.284-1.215-.324-1.805-.145z" style="fill: rgb(255, 255, 255);"/>
    <path d="m58 33.5h-52c-1.379 0-2.5 1.121-2.5 2.5v4.498c0 .925.489 1.734 1.309 2.164.818.431 1.764.371 2.527-.154.984-.68 2.295-.751 3.416-.19l2.568 1.284c2.297 1.148 4.886 1.139 6.921-.029 2.34-1.342 5.175-1.422 7.588-.217l.491.246c2.3 1.148 4.886 1.139 6.921-.029 2.341-1.342 5.176-1.422 7.588-.217l1.026.513c1.969.984 4.32.984 6.289 0l3.104-1.551c1.123-.561 2.433-.489 3.416.19.764.526 1.709.586 2.527.154.819-.43 1.309-1.239 1.309-2.164v-4.498c0-1.379-1.121-2.5-2.5-2.5z" style="fill: rgb(255, 255, 255);"/>
    <path d="m9 32.5h10c1.379 0 2.5-1.121 2.5-2.5v-6.5h-15v6.5c0 1.379 1.121 2.5 2.5 2.5z" style="fill: rgb(255, 255, 255);"/>
    <path d="m21.5 21c0-1.379-1.121-2.5-2.5-2.5h-10c-1.379 0-2.5 1.121-2.5 2.5v1.5h15z" style="fill: rgb(255, 255, 255);"/>
    <path d="m15.5 16c0-.827-.673-1.5-1.5-1.5s-1.5.673-1.5 1.5v1.5h3z" style="fill: rgb(255, 255, 255);"/>
    <path d="m18.146 9.854.5.5c.098.097.226.146.354.146s.256-.049.354-.146c.195-.195.195-.512 0-.707l-.5-.5c-.632-.632-.632-1.661 0-2.293 1.022-1.022 1.022-2.685 0-3.707l-.5-.5c-.195-.195-.512-.195-.707 0s-.195.512 0 .707l.5.5c.632.632.632 1.661 0 2.293-1.023 1.022-1.023 2.684-.001 3.707z" style="fill: rgb(255, 255, 255);"/>
    <path d="m14.146 9.854.5.5c.098.097.226.146.354.146s.256-.049.354-.146c.195-.195.195-.512 0-.707l-.5-.5c-.632-.632-.632-1.661 0-2.293 1.022-1.022 1.022-2.685 0-3.707l-.5-.5c-.195-.195-.512-.195-.707 0s-.195.512 0 .707l.5.5c.632.632.632 1.661 0 2.293-1.023 1.022-1.023 2.684-.001 3.707z" style="fill: rgb(255, 255, 255);"/>
    <path d="m10.146 9.854.5.5c.098.097.226.146.354.146s.256-.049.354-.146c.195-.195.195-.512 0-.707l-.5-.5c-.632-.632-.632-1.661 0-2.293 1.022-1.022 1.022-2.685 0-3.707l-.5-.5c-.195-.195-.512-.195-.707 0s-.195.512 0 .707l.5.5c.632.632.632 1.661 0 2.293-1.023 1.022-1.023 2.684-.001 3.707z" style="fill: rgb(255, 255, 255);"/>
    <path d="m38.146 13.854.5.5c.098.097.226.146.354.146s.256-.049.354-.146c.195-.195.195-.512 0-.707l-.5-.5c-.632-.632-.632-1.661 0-2.293 1.022-1.022 1.022-2.685 0-3.707l-.5-.5c-.195-.195-.512-.195-.707 0s-.195.512 0 .707l.5.5c.632.632.632 1.661 0 2.293-1.023 1.022-1.023 2.684-.001 3.707z" style="fill: rgb(255, 255, 255);"/>
    <path d="m34.146 13.854.5.5c.098.097.226.146.354.146s.256-.049.354-.146c.195-.195.195-.512 0-.707l-.5-.5c-.632-.632-.632-1.661 0-2.293 1.022-1.022 1.022-2.685 0-3.707l-.5-.5c-.195-.195-.512-.195-.707 0s-.195.512 0 .707l.5.5c.632.632.632 1.661 0 2.293-1.023 1.022-1.023 2.684-.001 3.707z" style="fill: rgb(255, 255, 255);"/>
    <path d="m30.146 13.854.5.5c.098.097.226.146.354.146s.256-.049.354-.146c.195-.195.195-.512 0-.707l-.5-.5c-.632-.632-.632-1.661 0-2.293 1.022-1.022 1.022-2.685 0-3.707l-.5-.5c-.195-.195-.512-.195-.707 0s-.195.512 0 .707l.5.5c.632.632.632 1.661 0 2.293-1.023 1.022-1.023 2.684-.001 3.707z" style="fill: rgb(255, 255, 255);"/>
  </g>
</svg>