<?xml version="1.0" encoding="utf-8"?>
<svg xmlns="http://www.w3.org/2000/svg" viewBox="800 113.345 241.0865 186.635" width="241.087px" height="186.635px" xmlns:bx="https://boxy-svg.com" preserveAspectRatio="none"><defs><style bx:fonts="Birthstone">@import url(https://fonts.googleapis.com/css2?family=Birthstone%3Aital%2Cwght%400%2C400&amp;display=swap);</style><style bx:fonts="Cardo">@import url(https://fonts.googleapis.com/css2?family=Cardo%3Aital%2Cwght%400%2C400%3B0%2C700%3B1%2C400&amp;display=swap);</style></defs><clipPath id="clip0_246_1849"><path d="m0 0h24v24h-24z"/></clipPath><g id="object-0" transform="matrix(1, 0, 0, 1, 0, 1.1368683772161603e-13)"><text style="fill: rgb(51, 51, 51); font-family: Birthstone; font-size: 89px; white-space: pre;" x="808" y="198.54">JAO</text><text style="fill: rgb(51, 51, 51); font-family: Birthstone; font-size: 89px; white-space: pre;" x="800" y="263.48">Ventures</text><text style="fill: rgb(225, 5, 5); font-family: Cardo; font-size: 89px; white-space: pre;" x="932.789" y="201.345">1</text><g clip-path="url(#clip0_246_1849)" clip-rule="evenodd" fill="rgb(0,0,0)" fill-rule="evenodd" transform="matrix(2.613011, 0, 0, 3.805242, 978.374268, 127.7005)" style=""><path d="m23.7071 5.29289c.3905.39053.3905 1.02369 0 1.41422l-9.5 9.49999c-.3905.3905-1.0237.3905-1.4142 0l-4.2929-4.2929-6.79289 6.7929c-.39053.3905-1.023693.3905-1.414217 0-.3905241-.3905-.3905241-1.0237 0-1.4142l7.499997-7.50001c.39053-.39052 1.02369-.39052 1.41422 0l4.29289 4.29291 8.7929-8.79291c.3905-.39052 1.0237-.39052 1.4142 0z"/><path d="m16 6c0-.55228.4477-1 1-1h6c.5523 0 1 .44772 1 1v6c0 .5523-.4477 1-1 1s-1-.4477-1-1v-5h-5c-.5523 0-1-.44772-1-1z"/></g></g></svg>