<?xml version="1.0" encoding="utf-8"?>
<svg viewBox="0 0 500 500" xmlns="http://www.w3.org/2000/svg" xmlns:bx="https://boxy-svg.com">
  <defs>
    <style bx:fonts="Cinzel">@import url(https://fonts.googleapis.com/css2?family=Cinzel%3Aital%2Cwght%400%2C400..900&amp;display=swap);</style>
  </defs>
  <text style="fill: rgb(255, 255, 255); font-family: Cinzel; font-size: 28px; font-weight: 457; text-anchor: middle; white-space: pre;" transform="matrix(0.97823, 0, 0, 1.07321, 68.485634, 83.858788)"><tspan x="210.563" y="145.775" style="font-weight: 556.25;">THE WHITEROCKER</tspan><tspan> | café</tspan><tspan x="210.563" dy="1em">​</tspan></text>
  <g transform="matrix(0.111491, 0, 0, 0.104029, -66.258034, 185.08374)" style="">
    <path class="st0" d="M431.684,252.936c-40.578-32.779-150.62-185.32-171.561-247.398C258.899,1.913,257.845,0,255.988,0&#10;&#9;&#9;c-1.832,0-2.894,1.913-4.11,5.538C230.92,67.616,120.894,220.157,80.308,252.936c-1.053,0.843-1.946,2.44-1.946,3.064&#10;&#9;&#9;c0,0.624,0.893,2.222,1.946,3.057c40.586,32.778,150.612,185.319,171.57,247.406c1.216,3.624,2.278,5.537,4.11,5.537&#10;&#9;&#9;c1.857,0,2.911-1.913,4.135-5.537c20.941-62.087,130.983-214.628,171.561-247.406c1.046-0.835,1.954-2.432,1.954-3.057&#10;&#9;&#9;C433.638,255.376,432.73,253.778,431.684,252.936z" style="stroke-width: 15.2014px; stroke: rgb(255, 255, 255); fill: rgb(255, 255, 255);"/>
  </g>
  <g transform="matrix(0.469745, 0, 0, 0.460995, -46.914764, 201.852921)" style="">
    <path d="M34.592,20.101c1.006,1.808,2.146,3.854,1.892,7.08c-0.298,3.947-2.771,6.509-6.785,7.023&#10;&#9;&#9;c-1.688,0.223-3.075,0.096-4.066-0.394c-0.666-0.326-1.243-0.768-1.76-1.26c0.55,2.049,1.516,3.729,2.46,5.371&#10;&#9;&#9;c0.224,0.391,0.445,0.775,0.66,1.163c0.167,0.303,0.167,0.67-0.002,0.972c-0.169,0.303-0.48,0.496-0.826,0.512&#10;&#9;&#9;c-1.631,0.076-3.376,0.11-5.496,0.11c-1.595,0-3.21-0.021-4.851-0.04l-1.082-0.013c-0.32-0.005-0.618-0.16-0.804-0.421&#10;&#9;&#9;c-0.185-0.262-0.234-0.594-0.133-0.897c0.175-0.521,0.456-0.964,0.703-1.354c0.081-0.128,0.162-0.255,0.238-0.384l0.14-0.254&#10;&#9;&#9;c0.23-0.41,0.46-0.822,0.671-1.271l0.216-0.474c0.428-0.928,0.87-1.888,1.12-2.897c0.01-0.042,0.02-0.083,0.03-0.125&#10;&#9;&#9;c-0.935,0.938-2.134,1.735-3.778,1.819c-2.358,0.1-4.16-0.604-4.813-0.896c-2.51-1.153-3.902-3.391-4.145-6.653&#10;&#9;&#9;c-0.098-1.347,0.145-2.904,0.666-4.278c0.705-1.886,1.973-3.858,3.092-5.602c0.569-0.869,1.188-1.697,1.785-2.498&#10;&#9;&#9;c0.309-0.408,2.857-3.774,3.25-4.259c1.899-2.346,3.56-5.104,5.166-7.774c0.389-0.646,0.776-1.291,1.168-1.93&#10;&#9;&#9;C19.488,0.182,19.811,0,20.158,0c0,0,0,0,0.001,0c0.348,0,0.67,0.181,0.852,0.477c0.838,1.364,1.722,2.698,2.656,4.11l1.039,1.574&#10;&#9;&#9;c1.256,1.929,2.707,3.8,4.108,5.608c1.983,2.56,4.034,5.204,5.689,8.177L34.592,20.101z" style=""/>
  </g>
  <g transform="matrix(0.111491, 0, 0, 0.104029, 39.222469, 196.952042)" style="">
    <path class="st0" d="M431.684,252.936c-40.578-32.779-150.62-185.32-171.561-247.398C258.899,1.913,257.845,0,255.988,0&#10;&#9;&#9;c-1.832,0-2.894,1.913-4.11,5.538C230.92,67.616,120.894,220.157,80.308,252.936c-1.053,0.843-1.946,2.44-1.946,3.064&#10;&#9;&#9;c0,0.624,0.893,2.222,1.946,3.057c40.586,32.778,150.612,185.319,171.57,247.406c1.216,3.624,2.278,5.537,4.11,5.537&#10;&#9;&#9;c1.857,0,2.911-1.913,4.135-5.537c20.941-62.087,130.983-214.628,171.561-247.406c1.046-0.835,1.954-2.432,1.954-3.057&#10;&#9;&#9;C433.638,255.376,432.73,253.778,431.684,252.936z" style="stroke-width: 15.2014px; fill: rgb(255, 255, 255); stroke: rgb(255, 255, 255);"/>
  </g>
  <g transform="matrix(-0.05028, 0, 0, 0.045444, 79.190155, 211.095352)" style="">
    <path class="st0" d="M462.632,283.152c23.08-38.464-7.688-76.928-30.768-50.008c-96.724,92.511-202.392,60.596-202.392,60.596&#10;&#9;&#9;s-61.852-13.814-66.705-54.039c-9.89-82.13,42.71-104.696,42.71-165.848C205.478,33.062,172.417,0,131.634,0&#10;&#9;&#9;C94.101,0,63.201,28.017,58.48,64.253c-9.242,9.55-29.197,28.798-43.384,32.671c-18.334,5.003,17.894,17.968,56.15,15.849&#10;&#9;&#9;c17.013,23.454,28.698,36.536,4.986,119.232c-61.518,158.401,60.356,269.944,160.255,278.862&#10;&#9;&#9;C451.886,530.1,501.096,297.995,501.096,297.995C504.943,266.679,493.408,248.536,462.632,283.152z" style=""/>
  </g>
</svg>