<?xml version="1.0" encoding="utf-8"?>
<svg viewBox="0 0 500 500" xmlns="http://www.w3.org/2000/svg" xmlns:bx="https://boxy-svg.com">
  <defs>
    <style bx:fonts="Cinzel">@import url(https://fonts.googleapis.com/css2?family=Cinzel%3Aital%2Cwght%400%2C400..900&amp;display=swap);</style>
  </defs>
  <text style="fill: rgb(255, 255, 255); font-family: Cinzel; font-size: 28px; font-weight: 457; text-anchor: middle; white-space: pre;" transform="matrix(0.9782299995422363, 0, 0, 1.0732100009918213, 66.76292419433594, 60.68020248413086)"><tspan x="210.563" y="145.775" style="font-weight: 556.25;">THE WHITEROCKER</tspan><tspan> | </tspan><tspan style="font-weight: 640;">cafe</tspan><tspan x="210.563" dy="1em">​</tspan></text>
  <g transform="matrix(0.11149100214242935, 0, 0, 0.10402899980545044, 35.01926040649415, 174.9051513671875)" style="">
    <path class="st0" d="M431.684,252.936c-40.578-32.779-150.62-185.32-171.561-247.398C258.899,1.913,257.845,0,255.988,0&#10;&#9;&#9;c-1.832,0-2.894,1.913-4.11,5.538C230.92,67.616,120.894,220.157,80.308,252.936c-1.053,0.843-1.946,2.44-1.946,3.064&#10;&#9;&#9;c0,0.624,0.893,2.222,1.946,3.057c40.586,32.778,150.612,185.319,171.57,247.406c1.216,3.624,2.278,5.537,4.11,5.537&#10;&#9;&#9;c1.857,0,2.911-1.913,4.135-5.537c20.941-62.087,130.983-214.628,171.561-247.406c1.046-0.835,1.954-2.432,1.954-3.057&#10;&#9;&#9;C433.638,255.376,432.73,253.778,431.684,252.936z" style="fill: rgb(255, 255, 255); stroke-width: 15.2014px; stroke: rgb(255, 255, 255);"/>
  </g>
  <g transform="matrix(-0.05028000473976135, 0, 0, 0.045444000512361526, 74.63906860351562, 188.68569946289062)" style="">
    <path class="st0" d="M462.632,283.152c23.08-38.464-7.688-76.928-30.768-50.008c-96.724,92.511-202.392,60.596-202.392,60.596&#10;&#9;&#9;s-61.852-13.814-66.705-54.039c-9.89-82.13,42.71-104.696,42.71-165.848C205.478,33.062,172.417,0,131.634,0&#10;&#9;&#9;C94.101,0,63.201,28.017,58.48,64.253c-9.242,9.55-29.197,28.798-43.384,32.671c-18.334,5.003,17.894,17.968,56.15,15.849&#10;&#9;&#9;c17.013,23.454,28.698,36.536,4.986,119.232c-61.518,158.401,60.356,269.944,160.255,278.862&#10;&#9;&#9;C451.886,530.1,501.096,297.995,501.096,297.995C504.943,266.679,493.408,248.536,462.632,283.152z"/>
  </g>
</svg>