<?xml version="1.0" encoding="utf-8"?>
<svg viewBox="0 0 500 500" xmlns="http://www.w3.org/2000/svg" xmlns:bx="https://boxy-svg.com">
  <defs>
    <style bx:fonts="Cinzel">@import url(https://fonts.googleapis.com/css2?family=Cinzel%3Aital%2Cwght%400%2C400..900&amp;display=swap);</style>
  </defs>
  <text style="fill: rgb(255, 255, 255); font-family: Cinzel; font-size: 28px; font-weight: 508.75; text-anchor: middle; white-space: pre;" transform="matrix(1.227403998374939, 0, 0, 1.1594690084457397, 29.1163330078125, 58.28579330444336)"><tspan x="210.563" y="145.775">THE </tspan><tspan x="210.563" dy="1em">​</tspan><tspan>whiterocker</tspan></text>
  <g transform="matrix(0.11149100214242935, 0, 0, 0.08889900892972946, 255.17466735839844, 142.10508728027344)" style="">
    <path class="st0" d="M431.684,252.936c-40.578-32.779-150.62-185.32-171.561-247.398C258.899,1.913,257.845,0,255.988,0&#10;&#9;&#9;c-1.832,0-2.894,1.913-4.11,5.538C230.92,67.616,120.894,220.157,80.308,252.936c-1.053,0.843-1.946,2.44-1.946,3.064&#10;&#9;&#9;c0,0.624,0.893,2.222,1.946,3.057c40.586,32.778,150.612,185.319,171.57,247.406c1.216,3.624,2.278,5.537,4.11,5.537&#10;&#9;&#9;c1.857,0,2.911-1.913,4.135-5.537c20.941-62.087,130.983-214.628,171.561-247.406c1.046-0.835,1.954-2.432,1.954-3.057&#10;&#9;&#9;C433.638,255.376,432.73,253.778,431.684,252.936z" style="fill: rgb(255, 255, 255); stroke-width: 15.2014px; stroke: rgb(255, 255, 255);"/>
  </g>
</svg>