<?xml version="1.0" encoding="utf-8"?>
<svg viewBox="0 0 500 500" xmlns="http://www.w3.org/2000/svg" xmlns:bx="https://boxy-svg.com">
  <defs>
    <bx:grid x="349.977" y="397.369" width="100" height="100"/>
    <style bx:fonts="Cinzel Decorative">@import url(https://fonts.googleapis.com/css2?family=Cinzel+Decorative%3Aital%2Cwght%400%2C400%3B0%2C700%3B0%2C900&amp;display=swap);</style>
  </defs>
  <g transform="matrix(0.981805, 0, 0, 1.018861, 44.178455, 34.991791)" style="">
    <g>
      <path style="stroke-width: 0.5px; stroke-miterlimit: 2.61; stroke: rgb(0, 0, 0);" d="M209.741,419.226l-1.152-0.197c-2.029-0.352-202.683-37.52-202.683-240.823&#10;&#9;&#9;&#9;c0-59.806,18.646-117.159,52.514-161.481l2.787-3.652l4.242,1.766c18.545,7.709,38.188,11.623,58.386,11.623&#10;&#9;&#9;&#9;c29.369,0,57.908-8.425,82.534-24.357L209.616,0l3.24,2.1c24.625,15.932,53.165,24.357,82.534,24.357&#10;&#9;&#9;&#9;c20.192,0,39.835-3.908,58.38-11.623l4.242-1.766l2.793,3.652c33.862,44.322,52.514,101.675,52.514,161.481&#10;&#9;&#9;&#9;c0,194.245-200.403,240.328-202.426,240.775L209.741,419.226z M65.2,27.579c-30.574,41.744-47.359,95.034-47.359,150.622&#10;&#9;&#9;&#9;c0,187.336,173.958,225.47,191.608,228.853c15.83-3.926,191.93-51.715,191.93-228.853c0-55.587-16.785-108.883-47.365-150.622&#10;&#9;&#9;&#9;c-18.724,7.178-38.421,10.812-58.63,10.812c-30.395,0-59.973-8.366-85.774-24.231c-25.807,15.866-55.378,24.231-85.774,24.231&#10;&#9;&#9;&#9;C103.627,38.391,83.93,34.757,65.2,27.579z"/>
    </g>
  </g>
  <g transform="matrix(-0.410407, 0, 0, 0.470734, 350.923431, 92.369003)" style="">
    <path class="st0" d="M462.632,283.152c23.08-38.464-7.688-76.928-30.768-50.008c-96.724,92.511-202.392,60.596-202.392,60.596&#10;&#9;&#9;s-61.852-13.814-66.705-54.039c-9.89-82.13,42.71-104.696,42.71-165.848C205.478,33.062,172.417,0,131.634,0&#10;&#9;&#9;C94.101,0,63.201,28.017,58.48,64.253c-9.242,9.55-29.197,28.798-43.384,32.671c-18.334,5.003,17.894,17.968,56.15,15.849&#10;&#9;&#9;c17.013,23.454,28.698,36.536,4.986,119.232c-61.518,158.401,60.356,269.944,160.255,278.862&#10;&#9;&#9;C451.886,530.1,501.096,297.995,501.096,297.995C504.943,266.679,493.408,248.536,462.632,283.152z" style=""/>
  </g>
  <text style="font-family: 'Cinzel Decorative'; font-size: 28px; font-weight: 361; white-space: pre;" transform="matrix(2.234545, 0, 0, 2.104615, -137.237473, 123.989799)" x="149.768" y="129.777">WR</text>
</svg>